<?xml version="1.0" encoding="UTF-8" standalone="no"?>
<!DOCTYPE svg PUBLIC "-//W3C//DTD SVG 1.1//EN" "http://www.w3.org/Graphics/SVG/1.1/DTD/svg11.dtd">
<svg width="100%" height="100%" viewBox="0 0 1262 116" version="1.1" xmlns="http://www.w3.org/2000/svg" xmlns:xlink="http://www.w3.org/1999/xlink" xml:space="preserve" xmlns:serif="http://www.serif.com/" style="fill-rule:evenodd;clip-rule:evenodd;stroke-linejoin:round;stroke-miterlimit:2;">
    <g transform="matrix(1,0,0,1,-51.2199,-35.4333)">
        <g>
            <g transform="matrix(0.69999,0,0,0.69999,20.1905,14.4145)">
                <path d="M44.328,160.105L44.328,34.058L132.818,34.058L132.818,61.905L88.848,61.905L88.848,84.257L128.971,84.257L128.971,107.341L88.848,107.341L88.848,131.341L132.818,131.341L132.818,160.105L44.328,160.105Z" style="fill:rgb(210,71,29);"/>
            </g>
            <g transform="matrix(0.69999,0,0,0.69999,20.1905,14.4145)">
                <path d="M148.391,160.105L148.391,68.318L186.498,68.318L186.498,88.287C189.307,81.448 193.46,76.196 198.956,72.531C204.575,68.867 211.231,67.035 218.926,67.035C230.895,67.035 240.178,71.188 246.773,79.493C253.369,87.677 256.667,99.28 256.667,114.303L256.667,160.105L218.01,160.105L218.01,112.288C218.01,101.417 213.613,95.982 204.819,95.982C199.567,95.982 195.292,97.936 191.994,101.845C188.696,105.631 187.048,110.761 187.048,117.234L187.048,160.105L148.391,160.105Z" style="fill:rgb(210,71,29);"/>
            </g>
            <g transform="matrix(0.69999,0,0,0.69999,20.1905,14.4145)">
                <path d="M292.576,160.105L260.514,68.318L303.018,68.318L318.957,123.28L334.53,68.318L368.057,68.318L337.095,160.105L292.576,160.105Z" style="fill:rgb(210,71,29);"/>
            </g>
            <g transform="matrix(0.69999,0,0,0.69999,20.1905,14.4145)">
                <path d="M431.997,135.922C435.539,135.922 439.264,135.555 443.173,134.822C447.203,134.089 451.295,132.746 455.448,130.792L459.845,154.426C455.325,156.746 450.379,158.517 445.005,159.739C439.753,160.96 433.707,161.571 426.867,161.571C414.531,161.571 404.149,159.555 395.722,155.525C387.416,151.494 381.126,145.937 376.851,138.853C372.576,131.769 370.439,123.585 370.439,114.303C370.439,104.776 372.699,96.471 377.218,89.387C381.859,82.303 388.027,76.806 395.722,72.898C403.416,68.989 411.905,67.035 421.188,67.035C434.989,67.035 445.554,71.371 452.883,80.043C460.211,88.593 463.875,100.807 463.875,116.685L409.279,123.647C413.31,131.83 420.882,135.922 431.997,135.922ZM406.348,106.791L435.111,100.746C434.623,96.837 433.279,93.967 431.081,92.135C428.882,90.181 426.134,89.203 422.837,89.203C417.951,89.203 414.043,90.913 411.111,94.333C408.302,97.631 406.714,101.784 406.348,106.791Z" style="fill:rgb(210,71,29);"/>
            </g>
            <g transform="matrix(0.69999,0,0,0.69999,20.1905,14.4145)">
                <path d="M512.792,161.571C504.12,161.571 497.036,160.105 491.54,157.174C486.165,154.242 482.257,150.273 479.814,145.265C477.371,140.257 476.15,134.639 476.15,128.41L476.15,35.707L514.807,30.027L514.807,123.097C514.807,125.906 515.723,128.105 517.555,129.692C519.387,131.158 521.769,131.891 524.7,131.891C527.632,131.891 530.563,131.158 533.494,129.692L536.242,155.158C533.311,157.235 529.586,158.823 525.067,159.922C520.548,161.021 516.456,161.571 512.792,161.571Z" style="fill:rgb(210,71,29);"/>
            </g>
            <g transform="matrix(0.69999,0,0,0.69999,20.1905,14.4145)">
                <path d="M592.671,161.571C582.289,161.571 573.128,159.555 565.189,155.525C557.25,151.494 551.021,145.937 546.502,138.853C542.105,131.647 539.907,123.402 539.907,114.12C539.907,104.593 542.166,96.349 546.685,89.387C551.327,82.303 557.617,76.806 565.556,72.898C573.495,68.989 582.594,67.035 592.854,67.035C603.358,67.035 612.579,69.051 620.518,73.081C628.457,76.99 634.625,82.486 639.022,89.57C643.419,96.532 645.618,104.715 645.618,114.12C645.618,123.524 643.358,131.83 638.839,139.036C634.442,146.12 628.274,151.677 620.335,155.708C612.396,159.616 603.174,161.571 592.671,161.571ZM593.037,134.089C598.045,134.089 602.136,132.257 605.312,128.593C608.61,124.807 610.258,119.982 610.258,114.12C610.258,108.257 608.671,103.494 605.495,99.829C602.319,96.043 598.289,94.15 593.403,94.15C588.151,94.15 583.877,96.043 580.579,99.829C577.403,103.494 575.815,108.257 575.815,114.12C575.815,119.982 577.403,124.807 580.579,128.593C583.877,132.257 588.029,134.089 593.037,134.089Z" style="fill:rgb(210,71,29);"/>
            </g>
            <g transform="matrix(0.69999,0,0,0.69999,20.1905,14.4145)">
                <path d="M698.015,189.052L659.358,194.731L659.358,68.318L697.466,68.318L697.466,88.287C700.641,80.715 704.977,75.28 710.473,71.982C716.092,68.684 721.893,67.035 727.878,67.035C736.428,67.035 744.062,69.051 750.779,73.081C757.619,76.99 762.993,82.425 766.901,89.387C770.932,96.349 772.947,104.471 772.947,113.753C772.947,123.036 770.932,131.28 766.901,138.486C762.993,145.693 757.619,151.372 750.779,155.525C744.062,159.555 736.428,161.571 727.878,161.571C720.55,161.571 714.443,159.983 709.557,156.807C704.672,153.632 700.824,149.051 698.015,143.067L698.015,189.052ZM715.97,132.624C721.222,132.624 725.619,130.853 729.161,127.311C732.703,123.769 734.474,119.433 734.474,114.303C734.474,109.173 732.703,104.837 729.161,101.295C725.619,97.753 721.222,95.982 715.97,95.982C710.962,95.982 706.687,97.692 703.145,101.112C699.603,104.41 697.832,108.685 697.832,113.937C697.832,119.188 699.603,123.647 703.145,127.311C706.687,130.853 710.962,132.624 715.97,132.624Z" style="fill:rgb(210,71,29);"/>
            </g>
            <g transform="matrix(0.69999,0,0,0.69999,20.1905,14.4145)">
                <path d="M843.666,135.922C847.208,135.922 850.933,135.555 854.841,134.822C858.872,134.089 862.964,132.746 867.116,130.792L871.513,154.426C866.994,156.746 862.048,158.517 856.674,159.739C851.422,160.96 845.376,161.571 838.536,161.571C826.2,161.571 815.818,159.555 807.391,155.525C799.085,151.494 792.795,145.937 788.52,138.853C784.245,131.769 782.108,123.585 782.108,114.303C782.108,104.776 784.367,96.471 788.886,89.387C793.528,82.303 799.696,76.806 807.391,72.898C815.085,68.989 823.574,67.035 832.856,67.035C846.658,67.035 857.223,71.371 864.551,80.043C871.88,88.593 875.544,100.807 875.544,116.685L820.948,123.647C824.978,131.83 832.551,135.922 843.666,135.922ZM818.017,106.791L846.78,100.746C846.292,96.837 844.948,93.967 842.75,92.135C840.551,90.181 837.803,89.203 834.505,89.203C829.62,89.203 825.711,90.913 822.78,94.333C819.971,97.631 818.383,101.784 818.017,106.791Z" style="fill:rgb(210,71,29);"/>
            </g>
            <g transform="matrix(0.69999,0,0,0.69999,20.1905,14.4145)">
                <path d="M923.544,160.105L923.544,34.058L961.652,34.058L993.164,95.249L1023.94,34.058L1062.05,34.058L1062.05,160.105L1023.94,160.105L1023.94,94.15L1000.68,138.12L985.102,138.12L961.652,94.15L961.652,160.105L923.544,160.105Z" style="fill:rgb(210,71,29);"/>
            </g>
            <g transform="matrix(0.69999,0,0,0.69999,20.1905,14.4145)">
                <path d="M1120.86,161.571C1112.43,161.571 1104.8,159.555 1097.96,155.525C1091.12,151.372 1085.68,145.693 1081.65,138.486C1077.75,131.28 1075.79,123.036 1075.79,113.753C1075.79,104.471 1077.75,96.349 1081.65,89.387C1085.68,82.425 1091.12,76.99 1097.96,73.081C1104.8,69.051 1112.43,67.035 1120.86,67.035C1126.85,67.035 1132.65,68.684 1138.26,71.982C1143.88,75.28 1148.22,80.715 1151.27,88.287L1151.27,68.318L1189.38,68.318L1189.38,160.105L1150.91,160.105L1150.91,143.067C1147.98,149.051 1144.07,153.632 1139.18,156.807C1134.3,159.983 1128.19,161.571 1120.86,161.571ZM1132.77,132.624C1137.78,132.624 1142.05,130.853 1145.59,127.311C1149.13,123.647 1150.91,119.188 1150.91,113.937C1150.91,108.685 1149.13,104.41 1145.59,101.112C1142.05,97.692 1137.78,95.982 1132.77,95.982C1127.52,95.982 1123.12,97.753 1119.58,101.295C1116.04,104.837 1114.26,109.173 1114.26,114.303C1114.26,119.433 1116.04,123.769 1119.58,127.311C1123.12,130.853 1127.52,132.624 1132.77,132.624Z" style="fill:rgb(210,71,29);"/>
            </g>
            <g transform="matrix(0.69999,0,0,0.69999,20.1905,14.4145)">
                <path d="M1246.91,161.571C1238.24,161.571 1231.15,160.105 1225.65,157.174C1220.28,154.242 1216.37,150.273 1213.93,145.265C1211.49,140.257 1210.27,134.639 1210.27,128.41L1210.27,91.036L1198.54,91.036L1198.54,68.318L1213.01,68.318L1230.05,39.371L1248.92,39.371L1248.92,68.318L1270.17,68.318L1270.17,91.036L1248.92,91.036L1248.92,123.097C1248.92,125.906 1249.84,128.105 1251.67,129.692C1253.5,131.158 1255.88,131.891 1258.82,131.891C1261.75,131.891 1264.68,131.158 1267.61,129.692L1270.36,155.158C1267.43,157.235 1263.7,158.823 1259.18,159.922C1254.66,161.021 1250.57,161.571 1246.91,161.571Z" style="fill:rgb(210,71,29);"/>
            </g>
            <g transform="matrix(0.69999,0,0,0.69999,20.1905,14.4145)">
                <path d="M1326.97,161.571C1316.71,161.571 1307.85,159.555 1300.4,155.525C1292.95,151.494 1287.21,145.998 1283.18,139.036C1279.15,131.952 1277.14,123.83 1277.14,114.669C1277.14,105.631 1279.21,97.509 1283.37,90.303C1287.52,83.096 1293.32,77.417 1300.77,73.264C1308.34,69.112 1317.08,67.035 1326.97,67.035C1338.82,67.035 1348.16,69.478 1355,74.364L1350.97,99.28C1347.92,97.936 1345.05,97.02 1342.36,96.532C1339.67,95.921 1337.11,95.616 1334.66,95.616C1328.68,95.616 1323.91,97.326 1320.37,100.746C1316.95,104.043 1315.24,108.562 1315.24,114.303C1315.24,119.921 1316.95,124.502 1320.37,128.044C1323.79,131.463 1328.31,133.173 1333.93,133.173C1338.82,133.173 1344.56,132.135 1351.15,130.059L1354.63,155.708C1350.6,157.662 1346.39,159.128 1341.99,160.105C1337.72,161.082 1332.71,161.571 1326.97,161.571Z" style="fill:rgb(210,71,29);"/>
            </g>
            <g transform="matrix(0.69999,0,0,0.69999,20.1905,14.4145)">
                <path d="M1368.74,160.105L1368.74,39.371L1407.4,33.691L1407.4,87.188C1409.96,80.837 1413.99,75.89 1419.49,72.348C1424.99,68.806 1431.58,67.035 1439.28,67.035C1451.25,67.035 1460.53,71.188 1467.12,79.493C1473.72,87.677 1477.02,99.28 1477.02,114.303L1477.02,160.105L1438.36,160.105L1438.36,112.288C1438.36,101.417 1433.96,95.982 1425.17,95.982C1419.92,95.982 1415.64,97.936 1412.34,101.845C1409.05,105.631 1407.4,110.761 1407.4,117.234L1407.4,160.105L1368.74,160.105Z" style="fill:rgb(210,71,29);"/>
            </g>
            <g transform="matrix(0.311214,0,0,0.311214,1060.9,77.8391)">
                <path d="M111.932,161.571C104.604,161.571 98.497,159.983 93.611,156.807C88.726,153.632 84.817,149.051 81.886,143.067L81.886,160.105L43.412,160.105L43.412,39.371L82.253,33.691L82.253,87.188C85.184,80.226 89.337,75.157 94.711,71.982C100.207,68.684 105.947,67.035 111.932,67.035C120.482,67.035 128.116,69.051 134.833,73.081C141.673,76.99 147.047,82.425 150.956,89.387C154.986,96.349 157.001,104.471 157.001,113.753C157.001,123.036 154.986,131.28 150.956,138.486C147.047,145.693 141.673,151.372 134.833,155.525C128.116,159.555 120.482,161.571 111.932,161.571ZM100.024,132.624C105.276,132.624 109.673,130.853 113.215,127.311C116.757,123.769 118.528,119.433 118.528,114.303C118.528,109.173 116.757,104.837 113.215,101.295C109.673,97.753 105.276,95.982 100.024,95.982C95.016,95.982 90.741,97.692 87.199,101.112C83.657,104.41 81.886,108.685 81.886,113.937C81.886,119.188 83.657,123.647 87.199,127.311C90.741,130.853 95.016,132.624 100.024,132.624Z" style="fill:rgb(210,71,29);"/>
            </g>
            <g transform="matrix(0.311214,0,0,0.311214,1060.9,77.8391)">
                <path d="M218.926,195.831C214.285,195.831 209.949,195.525 205.918,194.915C201.887,194.304 198.712,193.571 196.391,192.716L199.323,166.151C201.521,166.639 203.903,167.006 206.468,167.25C209.033,167.617 211.536,167.8 213.979,167.8C222.162,167.8 228.025,166.09 231.567,162.67C235.231,159.25 237.063,153.998 237.063,146.914L237.063,136.471C234.132,143.922 229.979,149.357 224.605,152.777C219.231,156.074 212.88,157.723 205.552,157.723C194.193,157.723 185.399,153.632 179.17,145.448C172.941,137.143 169.826,125.479 169.826,110.456L169.826,68.318L208.483,68.318L208.483,112.471C208.483,123.341 212.33,128.776 220.025,128.776C224.788,128.776 228.575,126.822 231.384,122.914C234.315,119.005 235.781,113.875 235.781,107.524L235.781,68.318L274.438,68.318L274.438,138.67C274.438,158.212 269.613,172.624 259.964,181.907C250.315,191.189 236.636,195.831 218.926,195.831Z" style="fill:rgb(210,71,29);"/>
            </g>
            <g transform="matrix(0.311214,0,0,0.311214,1060.9,77.8391)">
                <path d="M387.661,163.036C374.47,163.036 362.989,160.349 353.217,154.975C343.568,149.601 336.057,142.151 330.683,132.624C325.309,123.097 322.622,112.104 322.622,99.646C322.622,86.333 325.431,74.547 331.049,64.287C336.668,54.027 344.546,45.966 354.683,40.104C364.821,34.241 376.607,31.31 390.042,31.31C404.699,31.31 416.363,34.241 425.035,40.104L419.539,68.867C411.844,65.57 403.844,63.921 395.539,63.921C385.523,63.921 377.645,66.913 371.905,72.898C366.164,78.883 363.294,87.188 363.294,97.814C363.294,108.562 365.859,116.929 370.989,122.914C376.241,128.899 382.897,131.891 390.958,131.891C393.89,131.891 396.332,131.647 398.287,131.158L398.287,99.829L429.982,96.165L429.982,153.509C423.02,156.685 415.936,159.067 408.729,160.655C401.523,162.242 394.5,163.036 387.661,163.036Z" style="fill:rgb(210,71,29);"/>
            </g>
            <g transform="matrix(0.311214,0,0,0.311214,1060.9,77.8391)">
                <path d="M483.295,161.571C474.623,161.571 467.539,160.105 462.043,157.174C456.669,154.242 452.761,150.273 450.318,145.265C447.875,140.257 446.654,134.639 446.654,128.41L446.654,35.707L485.311,30.027L485.311,123.097C485.311,125.906 486.227,128.105 488.059,129.692C489.891,131.158 492.272,131.891 495.204,131.891C498.135,131.891 501.066,131.158 503.998,129.692L506.746,155.158C503.815,157.235 500.089,158.823 495.57,159.922C491.051,161.021 486.959,161.571 483.295,161.571Z" style="fill:rgb(210,71,29);"/>
            </g>
            <g transform="matrix(0.311214,0,0,0.311214,1060.9,77.8391)">
                <path d="M555.479,161.571C547.052,161.571 539.418,159.555 532.578,155.525C525.738,151.372 520.303,145.693 516.273,138.486C512.364,131.28 510.41,123.036 510.41,113.753C510.41,104.471 512.364,96.349 516.273,89.387C520.303,82.425 525.738,76.99 532.578,73.081C539.418,69.051 547.052,67.035 555.479,67.035C561.464,67.035 567.266,68.684 572.884,71.982C578.502,75.28 582.838,80.715 585.892,88.287L585.892,68.318L623.999,68.318L623.999,160.105L585.525,160.105L585.525,143.067C582.594,149.051 578.686,153.632 573.8,156.807C568.915,159.983 562.808,161.571 555.479,161.571ZM567.388,132.624C572.395,132.624 576.67,130.853 580.212,127.311C583.754,123.647 585.525,119.188 585.525,113.937C585.525,108.685 583.754,104.41 580.212,101.112C576.67,97.692 572.395,95.982 567.388,95.982C562.136,95.982 557.739,97.753 554.197,101.295C550.655,104.837 548.884,109.173 548.884,114.303C548.884,119.433 550.655,123.769 554.197,127.311C557.739,130.853 562.136,132.624 567.388,132.624Z" style="fill:rgb(210,71,29);"/>
            </g>
            <g transform="matrix(0.311214,0,0,0.311214,1060.9,77.8391)">
                <path d="M644.702,160.105L644.702,91.036L633.16,91.036L633.16,68.318L644.702,68.318L644.702,63.005C644.702,56.287 646.351,50.546 649.648,45.783C652.946,40.898 657.526,37.172 663.389,34.607C669.252,31.92 676.03,30.577 683.725,30.577C693.496,30.577 701.557,31.92 707.908,34.607L705.344,57.875C702.656,57.264 700.031,56.837 697.466,56.592C694.901,56.226 692.397,56.043 689.954,56.043C681.771,56.043 677.679,58.547 677.679,63.554C677.679,65.142 678.107,66.73 678.962,68.318L704.794,68.318L704.794,91.036L683.359,91.036L683.359,160.105L644.702,160.105Z" style="fill:rgb(210,71,29);"/>
            </g>
            <g transform="matrix(0.311214,0,0,0.311214,1060.9,77.8391)">
                <path d="M757.008,161.571C746.626,161.571 737.466,159.555 729.527,155.525C721.588,151.494 715.359,145.937 710.84,138.853C706.443,131.647 704.244,123.402 704.244,114.12C704.244,104.593 706.504,96.349 711.023,89.387C715.664,82.303 721.954,76.806 729.893,72.898C737.832,68.989 746.932,67.035 757.191,67.035C767.695,67.035 776.917,69.051 784.856,73.081C792.795,76.99 798.963,82.486 803.36,89.57C807.757,96.532 809.955,104.715 809.955,114.12C809.955,123.524 807.696,131.83 803.177,139.036C798.78,146.12 792.612,151.677 784.673,155.708C776.734,159.616 767.512,161.571 757.008,161.571ZM757.375,134.089C762.382,134.089 766.474,132.257 769.65,128.593C772.947,124.807 774.596,119.982 774.596,114.12C774.596,108.257 773.008,103.494 769.833,99.829C766.657,96.043 762.627,94.15 757.741,94.15C752.489,94.15 748.214,96.043 744.917,99.829C741.741,103.494 740.153,108.257 740.153,114.12C740.153,119.982 741.741,124.807 744.917,128.593C748.214,132.257 752.367,134.089 757.375,134.089Z" style="fill:rgb(210,71,29);"/>
            </g>
        </g>
    </g>
</svg>
